<svg width="28" height="27" viewBox="0 0 28 27" fill="none" xmlns="http://www.w3.org/2000/svg">
<g clip-path="url(#clip0_157_21)">
<path opacity="0.2" d="M0.826663 17.3466H2.65047L2.74231 17.7359L2.82104 18.0582C2.84728 18.1387 2.87352 18.2327 2.91289 18.3267C2.91289 18.3267 3.01785 18.6086 3.0441 18.6892C3.1097 18.8906 3.20155 19.1188 3.30651 19.4008L3.4246 19.6559C3.54269 19.911 3.6739 20.1929 3.84447 20.5017L4.18561 21.079L4.36931 21.3744C4.42179 21.455 4.47427 21.5355 4.52676 21.6161L5.05159 22.3411C5.16968 22.5022 5.30089 22.6499 5.4321 22.7976C5.48458 22.8513 5.53707 22.9184 5.58955 22.9856L5.87821 23.3078C5.95693 23.3883 6.02254 23.4555 6.10126 23.5226L6.20623 23.6166C6.20623 23.6166 6.33744 23.7374 6.38992 23.7911C6.54738 23.9388 6.70483 24.0865 6.8754 24.2208C7.87259 25.0532 9.06659 25.7513 10.3393 26.2347C11.7039 26.7583 13.2128 27.0403 14.6823 27.0403H14.7086C16.2831 27.0403 17.897 26.7046 19.3665 26.087C20.8885 25.4425 22.3056 24.4759 23.434 23.2944C24.5886 22.0994 25.5202 20.6494 26.1238 19.1054C26.7142 17.6151 27.0291 15.9637 27.0291 14.3257C27.0291 12.822 26.7404 11.278 26.2156 9.85478C25.7432 8.5793 25.0741 7.39779 24.2081 6.29685L24.0507 6.12231C23.7095 5.73295 23.3684 5.33017 22.9879 5.00794L22.5286 4.5783L21.7676 4.00098C21.6102 3.86672 21.4396 3.77273 21.2953 3.67875C21.2428 3.63847 21.1903 3.61162 21.1247 3.57134L20.5736 3.23569L20.5343 3.20883C20.1537 3.02087 19.8126 2.84633 19.4977 2.69864L19.4452 2.67179C18.7761 2.41669 18.2512 2.2153 17.8707 2.13474L17.3328 2.00048C17.1753 1.9602 17.0179 1.93335 16.8473 1.93335H16.7817C16.6636 1.93335 16.5586 1.93335 16.4668 1.9602C15.837 2.05418 15.7058 2.4704 15.6795 2.64494L15.4565 4.2695L15.0628 7.12927C15.0235 7.42465 15.1547 7.72002 15.4171 7.92141C15.5089 7.98855 15.6008 8.04225 15.7189 8.09595C15.7582 8.10938 15.8107 8.12281 15.8501 8.13623L15.9288 8.16309L16.2831 8.25707H16.3093C16.4012 8.27049 16.5717 8.33763 16.7423 8.40476C16.8473 8.44503 16.9522 8.48531 17.0703 8.52559C17.4771 8.70013 18.4874 9.21033 19.4321 10.3381C19.852 10.8752 20.1931 11.4793 20.4293 12.1104C20.7048 12.8354 20.836 13.5873 20.836 14.3525C20.836 15.185 20.6786 15.9905 20.3899 16.7424C20.0881 17.5211 19.6158 18.2461 19.0385 18.8503C18.4743 19.4411 17.7657 19.9244 17.0047 20.2466C16.2568 20.5554 15.4565 20.73 14.6561 20.73C13.2522 20.73 11.822 20.2198 10.7461 19.3202C9.94569 18.6489 9.46021 17.9239 9.17155 17.3869H10.5099C10.8248 17.3869 11.1134 17.1989 11.2578 16.8901C11.4021 16.5679 11.3496 16.1919 11.1266 15.9234L6.25872 10.1904L6.19311 10.1099C6.0619 9.94876 5.86509 9.85478 5.65515 9.85478C5.44522 9.85478 5.24841 9.94876 5.1172 10.1099L5.05159 10.177L0.209981 15.8831C-0.0130745 16.1516 -0.0655581 16.5276 0.0787718 16.8498C0.209981 17.1586 0.498641 17.3466 0.813542 17.3466H0.826663Z" fill="#231F20"/>
<path d="M27.1867 7.93486C26.7143 6.65937 26.0452 5.47787 25.1792 4.37693L25.0217 4.20239C24.6806 3.81303 24.3394 3.41024 23.9589 3.08802L23.4997 2.65838L22.7387 2.08106C22.5812 1.94679 22.4107 1.85281 22.2663 1.75883C22.2139 1.71855 22.1614 1.6917 22.0826 1.65142L21.5316 1.31576L21.4922 1.28891C21.1117 1.10095 20.7706 0.926406 20.4557 0.778719L20.4032 0.751866C19.734 0.496769 19.2092 0.295377 18.8287 0.21482L18.2907 0.0805585C18.1332 0.04028 17.9758 0.0134277 17.8052 0.0134277H17.7396C17.6215 0.0134277 17.5166 0.0134277 17.4247 0.04028C16.7949 0.134263 16.6637 0.550474 16.6375 0.725014L16.4144 2.34958L16.0208 5.20935C15.9814 5.50473 16.1126 5.8001 16.375 6.00149C16.4669 6.06862 16.5587 6.12233 16.6768 6.17603C16.7162 6.18946 16.7687 6.20289 16.808 6.21631L16.8999 6.24316L17.2541 6.33715H17.2804C17.3722 6.35057 17.5428 6.4177 17.7134 6.48483C17.8183 6.52511 17.9233 6.56539 18.0414 6.60567C18.4482 6.78021 19.4585 7.2904 20.4032 8.4182C20.823 8.95525 21.1642 9.55942 21.4004 10.1905C21.6759 10.9155 21.8071 11.6673 21.8071 12.4326C21.8071 13.265 21.6497 14.0706 21.361 14.8225C21.0592 15.6012 20.5869 16.3262 20.0095 16.9304C19.4453 17.5211 18.7368 18.0045 17.9758 18.3267C17.2279 18.6355 16.4275 18.81 15.6272 18.81C14.2232 18.81 12.793 18.2999 11.7171 17.4003C10.9168 16.729 10.4313 16.004 10.1426 15.4669H11.481C11.809 15.4669 12.0845 15.279 12.2288 14.9702C12.3732 14.6479 12.3207 14.272 12.0976 14.0035L7.22978 8.27051L7.16418 8.18996C7.03297 8.02884 6.83616 7.93486 6.62622 7.93486C6.41629 7.93486 6.21947 8.02884 6.08826 8.18996L6.02266 8.25709L1.15481 14.0035C0.93175 14.272 0.879266 14.6479 1.0236 14.9702C1.15481 15.279 1.44346 15.4669 1.75837 15.4669H3.58217L3.67402 15.8563L3.75274 16.1785C3.77899 16.2591 3.80523 16.3531 3.84459 16.447C3.84459 16.447 3.94956 16.729 3.9758 16.8095C4.0414 17.0109 4.13325 17.2392 4.23822 17.5211L4.3563 17.7762C4.47439 18.0313 4.6056 18.3133 4.77617 18.6221L5.11732 19.1994L5.30101 19.4948C5.35349 19.5753 5.40598 19.6559 5.45846 19.7364L5.9833 20.4615C6.10138 20.6226 6.23259 20.7703 6.3638 20.9179C6.41629 20.9717 6.46877 21.0388 6.52125 21.1059L6.80991 21.4281C6.88864 21.5087 6.95424 21.5758 7.03297 21.643L7.13794 21.7369C7.13794 21.7369 7.26915 21.8578 7.32163 21.9115C7.47908 22.0592 7.63653 22.2069 7.8071 22.3411C8.80429 23.1735 9.99829 23.8717 11.271 24.355C12.6356 24.8787 14.1445 25.1606 15.614 25.1606H15.6403C17.2148 25.1606 18.8287 24.825 20.2982 24.2074C21.8202 23.5629 23.2373 22.5962 24.3657 21.4147C25.5203 20.2198 26.4519 18.7698 27.0555 17.2258C27.6459 15.7355 27.9608 14.084 27.9608 12.446C27.9608 10.9423 27.6721 9.39831 27.1473 7.97514L27.1867 7.93486Z" fill="white"/>
<path d="M1.75845 14.8494H4.06773C4.06773 14.9434 4.09397 15.0374 4.12021 15.1314C4.12021 15.1314 4.1727 15.3327 4.26454 15.6953C4.29079 15.7892 4.31703 15.8832 4.34327 16.0041C4.36951 16.1115 4.42199 16.2323 4.46136 16.3666C4.5532 16.6217 4.65817 16.917 4.78938 17.2527C4.93371 17.5749 5.09116 17.924 5.28797 18.2999C5.39294 18.4879 5.51103 18.6759 5.62912 18.8638C5.6816 18.9578 5.74721 19.0652 5.81281 19.1592C5.87841 19.2532 5.94402 19.3472 6.02274 19.4546C6.16707 19.656 6.3114 19.8574 6.46885 20.0588C6.62631 20.2601 6.81 20.4615 6.99369 20.6629C7.08554 20.7703 7.17738 20.8643 7.26923 20.9717C7.36108 21.0657 7.46604 21.1597 7.57101 21.2671C7.78094 21.4551 7.99088 21.6699 8.21393 21.8579C9.1324 22.6232 10.2477 23.2945 11.5204 23.7778C12.7931 24.2611 14.2102 24.5431 15.6797 24.5431C17.1493 24.5431 18.6844 24.2343 20.1146 23.6301C21.5448 23.0259 22.8831 22.113 23.9853 20.9717C25.0874 19.8305 25.9665 18.461 26.5438 16.9842C27.1211 15.5073 27.3967 13.9499 27.3967 12.4461C27.3967 10.9424 27.108 9.47894 26.6226 8.19003C26.1371 6.90112 25.4679 5.7599 24.72 4.83349C24.3264 4.39043 23.959 3.94737 23.5523 3.58486C23.4473 3.49088 23.3555 3.39689 23.2505 3.31634C23.198 3.27606 23.1586 3.22235 23.1062 3.18208C23.0537 3.1418 23.0012 3.10152 22.9487 3.06124C22.7388 2.90013 22.542 2.75244 22.3583 2.60475C22.1746 2.45706 21.9646 2.33623 21.7809 2.21539C21.5841 2.09456 21.4004 1.98715 21.2299 1.87974C20.8625 1.69177 20.5082 1.51723 20.2064 1.36955C19.5635 1.12787 19.0518 0.926482 18.6844 0.845925C18.3301 0.751942 18.1333 0.698237 18.1333 0.698237C18.0152 0.671385 17.8972 0.657959 17.7922 0.657959C17.6872 0.657959 17.5954 0.657959 17.5035 0.671385C17.3461 0.698237 17.2411 0.751942 17.228 0.832499L16.9131 3.07467C16.9131 3.07467 17.0705 3.10152 17.3723 3.1418C17.451 3.1418 17.5298 3.16865 17.6216 3.1955C17.7135 3.22235 17.8053 3.24921 17.9103 3.27606C18.1202 3.32976 18.3695 3.38347 18.6319 3.49088C18.8943 3.59829 19.1961 3.67884 19.4979 3.83996C19.6554 3.92051 19.8128 3.98765 19.9703 4.08163C20.1277 4.16219 20.2852 4.28302 20.4557 4.377C20.7969 4.56497 21.1249 4.84692 21.4792 5.11544C21.6497 5.26313 21.8072 5.42424 21.9778 5.57193C22.1614 5.71962 22.3058 5.90759 22.4764 6.09555C23.1193 6.82056 23.7228 7.72012 24.1558 8.76736C24.5888 9.8146 24.8512 10.9961 24.8775 12.2313C24.9037 13.4665 24.7069 14.742 24.2477 15.9504C23.7884 17.1587 23.0799 18.2865 22.1614 19.2263C21.243 20.1527 20.1408 20.8912 18.96 21.3611C17.7791 21.831 16.5195 22.0458 15.3255 22.0055C14.1183 21.9787 12.9637 21.6967 11.9403 21.2671C10.9168 20.824 10.0509 20.2064 9.32921 19.5486C9.14552 19.3874 8.97495 19.2263 8.8175 19.0384C8.66004 18.8638 8.50259 18.6893 8.37139 18.5282C8.10897 18.1657 7.84655 17.83 7.64974 17.4809C7.54477 17.3064 7.4398 17.1453 7.36108 16.9842C7.28235 16.8096 7.20362 16.6485 7.1249 16.5008C6.96745 16.192 6.8756 15.8832 6.77064 15.6147C6.66567 15.3596 6.62631 15.1179 6.5607 14.9165V8.61967C6.5607 8.61967 6.4951 8.6331 6.46885 8.65995L1.5354 14.46C1.39107 14.6212 1.49603 14.9031 1.69285 14.9031L1.75845 14.8494Z" fill="#CC1F45"/>
<path d="M6.48205 14.2587C6.48205 14.3392 6.50829 14.4198 6.53453 14.5138C6.56077 14.6078 6.58701 14.7017 6.61325 14.8092C6.66574 15.024 6.71822 15.2791 6.82319 15.5476C6.92816 15.8161 7.00688 16.1249 7.17745 16.4337C7.25618 16.5948 7.32178 16.756 7.41363 16.9171C7.49235 17.0782 7.61044 17.2393 7.70229 17.4138C7.88598 17.7629 8.16152 18.0986 8.42394 18.4611C8.56827 18.6356 8.72572 18.7967 8.87005 18.9713C9.01438 19.1592 9.19807 19.3069 9.38176 19.4815C10.0903 20.1393 10.9694 20.7569 11.9928 21.2C13.0163 21.6431 14.1709 21.9116 15.378 21.9384C16.5851 21.9653 17.8316 21.7639 19.0125 21.294C20.1934 20.8241 21.2955 20.0991 22.214 19.1592C23.1193 18.2194 23.841 17.0916 24.3002 15.8833C24.7595 14.6749 24.9694 13.386 24.93 12.1642C24.9038 10.929 24.6283 9.7475 24.2084 8.70026C23.7754 7.65302 23.1718 6.76689 22.5289 6.02845C22.3715 5.84049 22.214 5.66595 22.0303 5.50483C21.8597 5.34372 21.6892 5.18261 21.5317 5.04834C21.1775 4.77982 20.8494 4.5113 20.5083 4.30991C20.3377 4.2025 20.1803 4.09509 20.0228 4.01453C19.8522 3.93397 19.6948 3.85342 19.5505 3.77286C19.2487 3.61175 18.9469 3.51776 18.6845 3.42378C18.4221 3.31637 18.1728 3.26267 17.9628 3.20896C17.8579 3.18211 17.7529 3.15526 17.6742 3.1284C17.5823 3.10155 17.5036 3.08813 17.4249 3.0747C17.1231 3.03442 16.9656 3.00757 16.9656 3.00757L16.6507 5.24974C16.6507 5.33029 16.6901 5.41085 16.7688 5.46456C16.8082 5.49141 16.8607 5.53169 16.9132 5.54511C16.9656 5.57196 17.0312 5.58539 17.0969 5.61224C17.0969 5.61224 17.2018 5.63909 17.4118 5.6928C17.6217 5.73308 17.9103 5.85391 18.2909 5.98818C19.0256 6.29698 20.0228 6.92801 20.9019 7.98867C21.3349 8.53914 21.7154 9.1836 21.991 9.93546C22.2665 10.6739 22.4371 11.5063 22.4371 12.3925C22.4371 13.2652 22.2796 14.1647 21.9385 15.0106C21.6104 15.8564 21.0987 16.6485 20.4558 17.3199C19.8129 17.9912 19.0387 18.5148 18.2121 18.8504C17.3855 19.1995 16.5064 19.3741 15.6536 19.3741C13.9347 19.3741 12.3996 18.7027 11.3368 17.83C10.274 16.9305 9.67042 15.9101 9.35552 15.1717C9.30304 15.0374 9.26368 14.9166 9.22431 14.8092H11.4811C11.6779 14.8092 11.7698 14.5272 11.6386 14.3661L6.7051 8.566C6.7051 8.566 6.65262 8.52572 6.61325 8.52572V13.7216L6.40332 13.7485C6.40332 13.7485 6.42956 13.9096 6.46892 14.2184L6.48205 14.2587Z" fill="#A2122A"/>
</g>
<defs>
<clipPath id="clip0_157_21">
<rect width="28" height="27" fill="white"/>
</clipPath>
</defs>
</svg>
