<svg width="27" height="48" viewBox="0 0 27 48" fill="none" xmlns="http://www.w3.org/2000/svg">
<g clip-path="url(#clip0_157_2)">
<path opacity="0.2" d="M9.89023 26.25L1.88023 34.25C0.670234 35.4699 0.000234375 37.09 0.000234375 38.81V45.06C0.000234375 46.43 1.11023 47.54 2.48023 47.54C3.14023 47.54 3.76023 47.28 4.22023 46.81L23.1702 27.86L23.3102 27.72C23.7102 27.32 23.9202 26.8 23.9202 26.24C23.9202 25.68 23.7002 25.16 23.3102 24.77L23.1602 24.62L4.21023 5.67995C3.74023 5.20995 3.13023 4.94995 2.47023 4.94995C1.10023 4.94995 -0.00976562 6.05995 -0.00976562 7.41995V13.68C-0.00976562 15.4 0.660234 17.02 1.87023 18.24L9.88023 26.25H9.89023Z" fill="#231F20"/>
<path d="M25.8298 19.82L25.6798 19.67L6.73979 0.73C6.26979 0.26 5.65979 0 4.99979 0C3.62979 0 2.52979 1.11 2.52979 2.47V8.73C2.52979 10.45 3.19978 12.07 4.40979 13.29L12.4198 21.3L4.40979 29.3C3.19978 30.52 2.52979 32.14 2.52979 33.86V40.11C2.52979 41.48 3.63979 42.59 4.99979 42.59C5.65979 42.59 6.27979 42.33 6.73979 41.86L25.6898 22.91L25.8298 22.77C26.2298 22.37 26.4398 21.85 26.4398 21.29C26.4398 20.73 26.2198 20.21 25.8298 19.82Z" fill="white"/>
<path d="M14.3799 20.96C14.4699 21.05 14.5199 21.16 14.5199 21.29H24.8299C24.8299 21.16 24.7799 21.05 24.6899 20.96L5.5999 1.86997C5.0599 1.32997 4.1499 1.70997 4.1499 2.46997V8.72997C4.1499 10.01 4.6599 11.24 5.5599 12.15L14.3799 20.97V20.96Z" fill="#CC1F45"/>
<path d="M4.13965 40.11C4.13965 40.87 5.05965 41.25 5.59965 40.71L24.6896 21.62C24.7796 21.53 24.8296 21.42 24.8296 21.29H14.5196C14.5196 21.42 14.4696 21.53 14.3796 21.62L5.55965 30.44C4.64965 31.35 4.14965 32.57 4.14965 33.86V40.11H4.13965Z" fill="#A2122A"/>
</g>
<defs>
<clipPath id="clip0_157_2">
<rect width="26.45" height="47.54" fill="white"/>
</clipPath>
</defs>
</svg>
