<svg width="27" height="48" viewBox="0 0 27 48" fill="none" xmlns="http://www.w3.org/2000/svg">
<g clip-path="url(#clip0_157_8)">
<path opacity="0.2" d="M16.55 26.25L24.56 34.25C25.77 35.4699 26.44 37.09 26.44 38.81V45.06C26.44 46.43 25.33 47.54 23.96 47.54C23.3 47.54 22.68 47.28 22.22 46.81L3.28003 27.86L3.14003 27.72C2.74003 27.32 2.53003 26.8 2.53003 26.24C2.53003 25.68 2.75003 25.16 3.14003 24.77L3.29003 24.62L22.23 5.67995C22.7 5.20995 23.31 4.94995 23.97 4.94995C25.34 4.94995 26.45 6.05995 26.45 7.41995V13.68C26.45 15.4 25.78 17.02 24.57 18.24L16.56 26.25H16.55Z" fill="#231F20"/>
<path d="M0.61 19.82L0.76 19.67L19.7 0.73C20.17 0.26 20.78 0 21.44 0C22.81 0 23.92 1.11 23.92 2.47V8.73C23.92 10.45 23.25 12.07 22.04 13.29L14.03 21.3L22.04 29.3C23.25 30.52 23.92 32.14 23.92 33.86V40.11C23.92 41.48 22.81 42.59 21.44 42.59C20.78 42.59 20.16 42.33 19.7 41.86L0.75 22.91L0.61 22.77C0.21 22.37 0 21.85 0 21.29C0 20.73 0.22 20.21 0.61 19.82Z" fill="white"/>
<path d="M12.0701 20.96C11.9801 21.05 11.9301 21.16 11.9301 21.29H1.62012C1.62012 21.16 1.67012 21.05 1.76012 20.96L20.8501 1.86997C21.3901 1.32997 22.3001 1.70997 22.3001 2.46997V8.72997C22.3001 10.01 21.7901 11.24 20.8901 12.15L12.0701 20.97V20.96Z" fill="#CC1F45"/>
<path d="M22.3001 40.11C22.3001 40.87 21.3801 41.25 20.8401 40.71L1.76012 21.62C1.67012 21.53 1.62012 21.42 1.62012 21.29H11.9301C11.9301 21.42 11.9801 21.53 12.0701 21.62L20.8901 30.44C21.8001 31.35 22.3001 32.57 22.3001 33.86V40.11Z" fill="#A2122A"/>
</g>
<defs>
<clipPath id="clip0_157_8">
<rect width="26.45" height="47.54" fill="white"/>
</clipPath>
</defs>
</svg>
